<?xml version="1.0" encoding="UTF-8" standalone="no"?>
<!-- Created with Inkscape (http://www.inkscape.org/) -->

<svg
   version="1.1"
   id="svg205"
   width="354.03171"
   height="169.16618"
   viewBox="0 0 354.03171 169.16618"
   sodipodi:docname="logo-skog.svg"
   inkscape:version="1.1.2 (b8e25be8, 2022-02-05)"
   xmlns:inkscape="http://www.inkscape.org/namespaces/inkscape"
   xmlns:sodipodi="http://sodipodi.sourceforge.net/DTD/sodipodi-0.dtd"
   xmlns="http://www.w3.org/2000/svg"
   xmlns:svg="http://www.w3.org/2000/svg">
  <defs
     id="defs209" />
  <sodipodi:namedview
     id="namedview207"
     pagecolor="#ffffff"
     bordercolor="#666666"
     borderopacity="1.0"
     inkscape:pageshadow="2"
     inkscape:pageopacity="0.0"
     inkscape:pagecheckerboard="0"
     showgrid="false"
     inkscape:zoom="0.88293371"
     inkscape:cx="353.36741"
     inkscape:cy="168.1893"
     inkscape:window-width="1920"
     inkscape:window-height="1027"
     inkscape:window-x="0"
     inkscape:window-y="25"
     inkscape:window-maximized="1"
     inkscape:current-layer="g211" />
  <g
     inkscape:groupmode="layer"
     inkscape:label="Image"
     id="g211"
     transform="translate(-1.2419952,-2.3329594)">
    <g
       id="g815"
       transform="matrix(0.5,0,0,0.5,1.1872918,1.7327737)">
      <path
         style="fill:#066db2"
         d="m 25.5,339.29218 c -3.880202,-0.96217 -8.324468,-5.2663 -9.835095,-9.52498 C 14.203326,325.6468 13.418631,313.23015 9.960292,239.5 9.418535,227.95 8.7799555,215.8 8.5412264,212.5 8.3024972,209.2 7.4007562,192.55 6.5373574,175.5 5.6739586,158.45 4.8026437,141.4997 4.601102,137.83267 c -0.2169937,-3.94818 0.075107,-7.10888 0.7162293,-7.75 C 5.9127991,129.4872 5.9725,129.00008 5.45,129.00018 4.8929293,129.00028 4.5,122.89954 4.5,114.25018 4.5,94.838411 3.3077618,61.974428 2.5770332,61.2437 2.2596649,60.926332 2,61.191667 2,61.833333 2,62.475 1.6112282,63 1.1360626,63 -0.11679301,63 -0.28025813,48.291243 0.96405093,47.522218 1.5907169,47.134917 2,48.067207 2,49.881966 c 0,1.65 0.3979429,3.245942 0.8843176,3.546538 C 3.3797201,53.73468 3.5466325,51.340738 3.2638442,47.985146 2.7108675,41.423473 3.4356897,39.860297 8.1652861,37.414527 10.339664,36.290113 32.436212,34.839662 105.73812,31.009698 225.11587,24.77231 237.1623,24.123626 255.32955,22.954408 263.48581,22.429484 271.27486,22 272.63857,22 c 1.55829,0 2.22525,-0.411326 1.79522,-1.107134 -0.44083,-0.71327 -0.0171,-0.922209 1.19098,-0.587319 4.80521,1.332009 9.70752,1.54205 19.87523,0.851563 6.05,-0.410854 11.14226,-0.41249 11.31614,-0.0036 0.17388,0.408856 1.29888,0.343822 2.5,-0.144519 2.31584,-0.941553 39.56545,-3.178557 48.42424,-2.90809 3.19947,0.09768 5.89164,-0.377626 6.91262,-1.220436 0.99447,-0.820933 1.80993,-0.972279 2.01196,-0.373411 0.18724,0.555041 2.4706,0.851328 5.08738,0.660136 3.39972,-0.248398 5.22918,-0.960182 6.44367,-2.50702 1.29414,-1.648292 1.97371,-1.883382 2.86798,-0.992153 0.6827,0.680369 2.58391,0.938858 4.55399,0.619158 C 387.79042,13.934603 389,14.142762 389,14.869158 389,15.491121 390.35,16 392,16 c 2,0 3,0.5 3,1.5 0,0.825 0.45,1.5 1,1.5 0.55,0 1,-0.622516 1,-1.383369 0,-0.760852 0.9,-1.618724 2,-1.90638 1.53748,-0.402059 2,-0.03068 2,1.605875 v 2.128886 l 1.54719,-2.208922 c 1.16808,-1.667672 2.33197,-2.123007 4.75,-1.858293 1.76155,0.192846 3.25906,0.861733 3.32781,1.486416 0.0688,0.624683 0.18125,1.460915 0.25,1.858293 0.0688,0.397379 0.82552,-0.277621 1.6817,-1.5 1.47072,-2.099735 5.22688,-3.299386 3.97172,-1.268495 C 415.69796,17.297732 417.01111,22 418.21682,22 c 0.57504,0 0.7254,-1.094061 0.35384,-2.574498 -0.56399,-2.247123 -0.36046,-2.533234 1.6006,-2.25 1.39506,0.201488 2.50881,1.272189 2.93807,2.824498 0.6435,2.327111 0.95689,2.347745 1.26567,0.08333 0.0688,-0.504166 0.4625,-1.254166 0.875,-1.666666 0.4125,-0.4125 0.75,-1.575 0.75,-2.583334 0,-1.543239 0.83072,-1.835494 5.25,-1.846988 6.49782,-0.0169 9.75,-0.838885 9.75,-2.464304 0,-0.800227 0.92556,-1.067765 2.59195,-0.749215 1.89263,0.361799 2.22989,0.724961 1.25,1.346016 -1.89565,1.201467 2.99707,1.058006 48.90825,-1.434057 24.55447,-1.332819 40.25013,-1.8143286 40.25,-1.234785 -1.1e-4,0.5225 0.5398,0.41 1.1998,-0.25 1.73846,-1.7384576 6.47589,-1.4870064 7.19301,0.3817875 1.03324,2.6925825 0.69556,3.1578005 -1.92805,2.6562645 C 537.70965,11.711341 534,14.293633 534,16.738321 c 0,0.78559 0.34203,1.278346 0.76008,1.095012 C 541.87866,14.711457 545,12.422078 545,10.322745 545,8.3454319 545.50835,8 548.41821,8 c 1.88002,0 4.13002,-0.273145 5,-0.6069888 C 554.4562,6.9946995 555,7.3384902 555,8.3930112 555,9.276855 555.45,10 556,10 c 0.55,0 1,-0.8717082 1,-1.9371294 0,-1.6403321 0.51524,-1.8535177 3.36285,-1.3914145 1.84956,0.3001433 4.37887,0.00196 5.62067,-0.6626387 1.68878,-0.9038057 2.07449,-0.9116943 1.53037,-0.0313 -0.53311,0.8625977 0.43648,1.0319386 3.62933,0.6338666 C 573.53945,6.3126312 581.575,5.8075257 589,5.4889275 c 7.425,-0.3185982 25.425,-1.2176045 40,-1.9977918 56.1142,-3.00374487 54.04625,-2.99214228 58,-0.3254191 5.24734,3.5392181 7.10348,8.2865334 7.73731,19.7891104 l 0.5454,9.897925 -2.89135,2.661507 c -1.80253,1.659236 -2.23235,2.45194 -1.14136,2.105008 3.09747,-0.984991 4.75,0.402341 4.75,3.987722 C 696,43.473145 695.55,45 695,45 c -0.55,0 -1,-0.45 -1,-1 0,-0.55 -0.9,-1 -2,-1 -1.1,0 -2,0.45 -2,1 0,0.55 0.72314,1 1.60699,1 1.01759,0 1.39587,0.550157 1.03138,1.5 -0.31658,0.825 -0.0909,1.5 0.50142,1.5 0.64639,0 0.82882,0.988946 0.45625,2.47336 -0.47526,1.893608 -0.28341,2.343904 0.81848,1.921067 1.8914,-0.725796 2.23592,2.296365 3.60299,31.605573 0.60287,12.925 1.30614,28 1.56283,33.5 0.25669,5.5 0.68737,15.79058 0.95706,22.86795 0.2697,7.07738 0.73567,13.26488 1.0355,13.75 0.29982,0.48513 0.24358,1.36998 -0.12499,1.96634 -0.76273,1.23412 -0.92406,13.7729 -0.1867,14.51026 0.26589,0.26588 -0.31482,2.04916 -1.29046,3.96282 -1.92409,3.774 -1.58711,7.44263 0.68364,7.44263 1.07031,0 1.30279,0.98178 0.94175,3.97707 -0.26365,2.18738 -0.0843,4.22124 0.39861,4.51969 0.48289,0.29844 0.89408,1.32126 0.91375,2.27293 0.49274,23.83915 0.68995,28.89104 1.16056,29.73031 0.30841,0.55 0.49446,6.59456 0.41345,13.43235 -0.0969,8.18061 0.27954,13.31046 1.10076,15 1.68211,3.46064 3.42675,38.40705 2.1495,43.05596 -1.22172,4.4468 -6.84553,9.78131 -11.01168,10.44521 -1.7716,0.28231 -19.87109,1.37069 -40.22109,2.41861 -26.33365,1.35605 -37.19719,1.59369 -37.68402,0.82434 -1.0079,-1.59283 -0.15271,-2.4436 3.19549,-3.17899 3.08617,-0.67784 3.41595,-1.22006 2.38154,-3.91569 -0.834,-2.17338 -2.05481,-1.98306 -2.68276,0.41821 -0.35342,1.35148 -1.36401,2 -3.11663,2 -1.6767,0 -2.59362,0.54834 -2.59362,1.55103 0,2.41193 -6.33345,4.48298 -15.31417,5.00777 -4.50221,0.26308 -15.3519,0.90987 -24.11043,1.43731 -11.40571,0.68685 -16.3007,0.64683 -17.25,-0.14101 C 558.35875,310.05285 558,310.05893 558,310.87756 558,311.4949 556.65,312 555,312 c -1.65,0 -3,-0.43886 -3,-0.97525 0,-0.61881 -0.8856,-0.63854 -2.42307,-0.054 -1.33269,0.50669 -3.69519,0.80457 -5.25,0.66195 -1.55481,-0.14261 -4.17693,0.12628 -5.82693,0.59753 -1.65,0.47125 -9.5536,1.04416 -17.56355,1.27313 -8.00995,0.22897 -15.20995,0.63883 -16,0.91081 -0.79005,0.27197 -3.46145,0.45573 -5.93645,0.40835 -2.475,-0.0474 -7.425,0.20763 -11,0.56668 -3.575,0.35906 -19.325,1.3167 -35,2.12809 -15.675,0.8114 -36.825,1.91124 -47,2.44409 -10.175,0.53285 -27.86727,1.45737 -39.31615,2.05448 l -20.81616,1.08566 -2.04328,-2.59762 c -2.4124,-3.06687 -4.27236,-2.81952 -4.30272,0.5722 -0.0201,2.24557 -0.42634,2.4378 -5.52169,2.61279 -3.025,0.10389 -48.25,2.46647 -100.5,5.25017 -52.25,2.78371 -95.5625,5.06121 -96.25,5.06112 -0.6875,-10e-5 -1.25,-0.86338 -1.25,-1.91839 0,-2.82908 -1.08128,-5.14959 -2.10478,-4.51703 -0.49237,0.3043 -0.89522,1.84914 -0.89522,3.43298 0,3.67926 2.40693,3.40044 -51.5,5.96584 -23.65,1.1255 -45.475,2.22145 -48.5,2.43545 -3.025,0.214 -6.4,0.16592 -7.5,-0.10685 z M 246,322.00581 c 0,-0.4185 -0.61529,-1.27157 -1.36732,-1.8957 -1.0382,-0.86162 -1.66069,-0.78129 -2.58609,0.33375 -0.67032,0.80769 -0.95458,1.896 -0.63168,2.41846 0.65749,1.06385 4.58509,0.33017 4.58509,-0.85651 z m -107.62137,-8.44168 c 2.81675,-0.3012 57.77137,-3.26789 122.12137,-6.59265 64.35,-3.32475 133.60664,-6.92846 153.90365,-8.00824 44.58333,-2.37179 40.13601,-2.31841 38.59635,-0.46324 -0.79743,0.96085 -0.8593,1.5 -0.17213,1.5 0.59001,0 1.46914,-0.7083 1.95361,-1.57401 0.75472,-1.34861 9.96225,-2.05539 64.29969,-4.9357 84.55732,-4.4822 78.21549,-4.36928 79.04361,-1.40751 0.6633,2.37229 0.67771,2.36611 0.77554,-0.33278 0.0967,-2.66826 0.2706,-2.75033 5.84968,-2.76101 3.1625,-0.006 7.4375,-0.28993 9.5,-0.63084 3.30901,-0.54694 3.75,-0.38026 3.75,1.41739 0,1.54489 0.48333,1.91083 2,1.51421 1.1,-0.28766 2,-1.11756 2,-1.84423 0,-0.72667 0.7875,-1.30484 1.75,-1.28482 0.9625,0.02 13.34979,-0.64869 27.5273,-1.48604 21.27791,-1.25671 26.32158,-1.84119 28.89547,-3.34855 4.19491,-2.45669 6.91285,-6.30596 7.74437,-10.96795 0.69185,-3.87895 -2.49647,-70.27083 -3.41891,-71.19326 -0.43648,-0.43648 -80.7994,3.43787 -120.99823,5.83341 -8.25,0.49164 -39.3,2.11501 -69,3.6075 -29.7,1.49249 -54.195,2.87424 -54.43333,3.07057 -0.23834,0.19632 0.0992,0.88945 0.75,1.54029 0.65083,0.65083 1.18333,2.06307 1.18333,3.13832 0,1.89164 -0.0648,1.89634 -2,0.14501 -1.1,-0.99549 -2,-2.41523 -2,-3.15499 0,-1.85689 0.0287,-1.85778 -83.973,2.59676 -48.48628,2.57119 -73.59554,4.26384 -73.83333,4.97722 -0.19819,0.59456 -0.81321,1.08101 -1.36671,1.08101 -0.55351,0 -1.85104,1.0125 -2.8834,2.25 -1.34378,1.6108 -1.88212,1.82387 -1.89498,0.75 -0.0231,-1.92896 1.05968,-3.52807 2.95142,-4.35887 0.825,-0.36231 -2.05539,-0.42979 -6.40088,-0.14994 C 266.25364,222.77104 260.07146,223 256.86094,223 h -5.8373 l -0.63672,3.98182 c -0.70951,4.43701 -2.38692,4.47907 -2.38692,0.0599 0,-2.65936 -0.29564,-2.86381 -4.64087,-3.2094 -5.43885,-0.43257 -22.87595,1.32753 -23.95211,2.41772 -1.01715,1.0304 -5.164,0.94736 -5.57369,-0.11162 -0.18333,-0.47389 -19.45833,0.1646 -42.83333,1.41886 -23.375,1.25427 -48.8,2.55707 -56.5,2.89513 -7.7,0.33806 -15.8,0.83364 -18,1.10129 -2.2,0.26765 -9.625,0.68849 -16.5,0.9352 -15.932316,0.57174 -52.414742,2.61754 -52.770585,2.95918 -0.148821,0.14289 0.480295,15.51303 1.398036,34.15588 1.911322,38.8263 2.35099,41.02875 9.143402,45.80264 l 4.233916,2.97571 24.747615,-1.20302 c 13.611189,-0.66167 33.639426,-1.71837 44.507186,-2.34823 10.86777,-0.62986 20.04439,-0.86039 20.3925,-0.51228 0.34811,0.34811 0.0801,1.29909 -0.59566,2.11329 -0.69145,0.83315 -0.87928,2.04555 -0.42963,2.77311 0.54975,0.88952 1.08461,0.29677 1.71473,-1.90031 0.84442,-2.94433 1.3147,-3.23572 6.03712,-3.7407 z M 79.38529,288.85277 C 77.732151,286.68196 70.724814,261.25428 71.454404,260.07378 71.819401,259.4832 73.856578,259 75.981465,259 c 4.381701,0 4.397001,0.0286 7.625074,14.25 0.967531,4.2625 2.04209,7.75 2.387908,7.75 0.345818,0 1.206504,-4.72721 1.912635,-10.50491 1.441497,-11.7946 1.562424,-11.92975 10.120194,-11.31088 l 4.366854,0.31579 2.68814,11 c 1.47848,6.05 2.75406,10.55 2.83462,10 0.64647,-4.41344 3.02637,-22.15684 3.05143,-22.75 0.0174,-0.4125 2.09243,-0.75 4.61114,-0.75 4.45679,0 4.56534,0.0737 4.0527,2.75 -0.28971,1.5125 -1.53103,8.43231 -2.75849,15.37735 l -2.23173,12.62734 -6.05698,0.54923 c -3.33134,0.30207 -6.54813,0.14161 -7.14842,-0.35659 -0.60029,-0.49819 -1.934199,-4.29015 -2.964239,-8.42657 C 97.44226,275.38434 96.309716,272 95.955536,272 c -0.354181,0 -1.163613,3.67454 -1.798739,8.16566 -0.635126,4.49111 -1.354658,8.36553 -1.598961,8.60984 -0.244302,0.2443 -3.076278,0.666 -6.293278,0.93711 -4.21483,0.3552 -6.136927,0.11495 -6.879268,-0.85984 z M 134.47988,285.75 c -2.20349,-6.02245 -8.03508,-27.5844 -7.71782,-28.53618 0.22593,-0.67778 2.14372,-1.21382 4.34271,-1.21382 4.63783,0 4.71409,0.13319 8.01608,14 2.11422,8.87872 2.31142,9.27111 3.01542,6 0.41429,-1.925 1.05599,-6.48399 1.42599,-10.13109 0.37,-3.6471 1.02844,-7.20664 1.46319,-7.9101 0.43476,-0.70345 3.29172,-1.48642 6.3488,-1.73994 6.46331,-0.53599 6.36864,-0.65733 9.19135,11.78113 0.9361,4.125 2.02204,8.10691 2.41319,8.8487 0.39115,0.74178 1.34344,-3.98322 2.1162,-10.5 L 166.5,254.5 l 4.25,-0.3075 c 3.86339,-0.27952 4.24905,-0.0976 4.23954,2 -0.0128,2.82989 -4.5848,27.73609 -5.20537,28.35666 -0.24548,0.24548 -3.30891,0.55985 -6.80761,0.69859 L 156.61528,285.5 154.49206,278 c -1.16777,-4.125 -2.36228,-8.175 -2.65446,-9 -0.29219,-0.825 -1.12873,2.47851 -1.85899,7.34112 -1.1721,7.80471 -1.60799,8.94767 -3.71828,9.75 -3.5506,1.34994 -11.24323,1.12718 -11.78045,-0.34112 z M 363.5,285.84527 c -4.76286,-2.60508 -5.91257,-7.4327 -2.56691,-10.77836 1.65657,-1.65657 1.72809,-2.10322 0.5,-3.12244 -1.89249,-1.57063 -1.83217,-6.36837 0.10022,-7.97212 1.36303,-1.13121 1.3075,-1.51289 -0.5,-3.43689 C 359.64715,259.05996 359,257.01801 359,254.11981 c 0,-8.74461 3.65817,-11.11282 17.20034,-11.13512 5.11481,-0.008 9.96936,-0.43874 10.78789,-0.95625 1.09443,-0.69196 1.81273,-0.35715 2.71456,1.26531 1.81858,3.27172 1.56485,4.62718 -1.09282,5.8381 -2.04126,0.93006 -2.31923,1.62009 -1.90479,4.72856 0.86951,6.52172 -5.09774,11.11796 -14.45518,11.13401 -2.21974,0.004 -3.25,0.48108 -3.25,1.50558 0,1.20601 1.53933,1.5 7.85398,1.5 6.95078,0 8.15826,0.282 10.5,2.45225 5.52656,5.12184 2.43281,13.12503 -5.97625,15.4599 -4.98417,1.38391 -15.29578,1.34533 -17.87773,-0.0669 z m 15.97135,-6.20066 C 382.61065,277.34909 380.71461,275 375.72251,275 c -5.53951,0 -8.74312,2.06531 -6.81232,4.39179 1.64201,1.9785 7.99322,2.13054 10.56116,0.25282 z m -3.40561,-21.67979 c 2.01698,-1.07946 2.60618,-5.35698 1.07127,-7.77737 -0.89966,-1.41868 -6.13146,-1.92695 -7.9929,-0.77652 -0.62926,0.38891 -1.14411,2.23319 -1.14411,4.0984 0,4.73515 3.7119,6.78559 8.06574,4.45549 z M 188.6382,278.75 c -0.82704,-2.8875 -2.70404,-9.45743 -4.17112,-14.59984 -1.72021,-6.02972 -2.32353,-9.69371 -1.69902,-10.31822 0.53261,-0.53261 2.69153,-0.82518 4.79759,-0.65016 l 3.82922,0.31822 2.55256,10.69231 c 1.40391,5.88076 2.80968,10.93788 3.12393,11.23802 0.31425,0.30015 1.13224,-4.27938 1.81775,-10.17672 0.68552,-5.89735 1.36489,-10.84094 1.50972,-10.98578 0.14483,-0.14483 3.11752,-0.37684 6.60598,-0.51558 l 6.34265,-0.25225 2.65458,10.5 c 2.90688,11.49797 3.45001,11.37953 4.5857,-1 1.00629,-10.96908 1.55504,-12 6.38751,-12 2.21361,0 4.02475,0.29894 4.02475,0.66431 0,1.01671 -5.14871,29.80775 -5.37128,30.03564 -0.1074,0.10997 -3.16925,0.50464 -6.80411,0.87704 l -6.60883,0.67709 -1.62642,-5.59468 c -0.89453,-3.07708 -1.89933,-6.95925 -2.23289,-8.62704 -1.00512,-5.02563 -1.94468,-3.46924 -3.07529,5.09427 -0.62109,4.70432 -1.64318,8.48797 -2.42705,8.98469 -0.74477,0.47193 -3.9097,0.86495 -7.03317,0.87337 L 190.14192,284 Z m 49.03471,-0.5 c 0.73772,-5.52145 1.10664,-5.87431 6.35674,-6.08003 3.3877,-0.13274 4.02059,0.18201 4.54183,2.2588 1.04809,4.17593 0.14816,6.04536 -3.08003,6.39818 -1.6453,0.17982 -3.41895,0.74232 -3.94145,1.25 -0.5225,0.50768 -1.75139,0.92305 -2.73087,0.92305 -1.54695,0 -1.69751,-0.62391 -1.14622,-4.75 z m 30.37456,-0.1613 c -2.82539,-5.27929 -10.05034,-27.48583 -9.21451,-28.32166 0.49692,-0.49692 2.63364,-0.76028 4.74829,-0.58526 l 3.8448,0.31822 3.53697,11.22887 c 1.94534,6.17588 3.78333,11.23838 4.08442,11.25 0.30109,0.0116 1.37107,-4.81637 2.37773,-10.72887 1.00667,-5.9125 2.04596,-11.3125 2.30955,-12 0.55894,-1.45784 9.26528,-1.74592 9.26528,-0.30658 0,1.46629 -6.92563,29.31554 -7.41097,29.80088 -0.23706,0.23707 -3.11958,0.67482 -6.40558,0.97278 -5.39827,0.4895 -6.08658,0.33243 -7.13598,-1.62838 z M 512.5,277.80505 c -1.1,-0.62377 -2.33061,-1.62258 -2.73469,-2.21959 -1.25477,-1.85386 -0.83717,-7.28094 0.65558,-8.51981 1.22132,-1.0136 1.1862,-1.59264 -0.25,-4.12244 -1.55209,-2.73396 -1.55413,-3.14892 -0.0286,-5.83661 1.44444,-2.54479 1.46532,-3.0704 0.1733,-4.36242 -2.15808,-2.15808 -2.67325,-8.77215 -0.91474,-11.74418 0.81356,-1.375 2.13528,-3.90757 2.93714,-5.62792 0.80186,-1.72036 1.95384,-3.43442 2.55996,-3.80902 1.3482,-0.83324 1.47373,1.66602 0.15002,2.98694 -1.01905,1.01691 15.01204,1.00971 20.53511,-0.009 2.59207,-0.4782 3.26305,-0.17386 4.21292,1.91087 0.90548,1.98731 0.82515,2.78432 -0.40453,4.01401 C 538.5476,241.30955 537.43929,242 536.92857,242 536.41786,242 536,243.82958 536,246.06574 c 0,7.37209 -2.70456,9.83687 -11.89453,10.84002 -2.99656,0.32709 -5.63009,1.15619 -5.85803,1.84424 -0.30829,0.93058 1.63722,1.25 7.61346,1.25 7.004,0 8.37895,0.30224 10.78334,2.37041 5.25301,4.51845 3.08208,12.11681 -4.36212,15.26761 -3.87672,1.64084 -16.98788,1.75155 -19.78212,0.16703 z m 16.96309,-6.411 c 1.23992,-1.23992 1.34225,-1.92367 0.44898,-3 C 527.79636,265.84477 518,267.13122 518,269.95833 c 0,2.54838 0.90743,3.04167 5.59524,3.04167 2.57999,0 4.89567,-0.63377 5.86785,-1.60595 z m -3.89015,-21.15936 c 1.80919,-1.23883 2.41881,-4.12619 1.42376,-6.74337 C 526.2434,241.50999 525.35303,241 522.6472,241 c -1.87127,0 -3.95766,0.66916 -4.63642,1.48701 -1.3874,1.67171 -0.55705,6.5446 1.3185,7.73766 1.49877,0.95338 4.8581,0.95877 6.24366,0.01 z m -222.08992,26.23049 c -4.43448,-2.189 -5.77843,-5.08835 -6.27461,-13.53639 -0.53797,-9.15958 1.17331,-13.35468 6.32589,-15.50757 5.01684,-2.09617 13.30615,-1.81587 17.24063,0.58298 3.67472,2.24048 4.84401,4.64253 5.81199,11.93947 0.79395,5.98516 1.02482,5.84852 -10.58692,6.26587 -6.69754,0.24073 -8.5,0.61914 -8.5,1.78451 0,2.82576 4.71139,4.08383 10.96461,2.92786 6.36364,-1.17638 6.02898,-1.26176 6.96205,1.7761 0.54241,1.76597 0.0852,2.50306 -2.32611,3.75 -3.89508,2.01422 -15.55124,2.02442 -19.61753,0.0172 z M 317,257.7 c 0,-3.14822 -1.81592,-4.7 -5.5,-4.7 -3.68408,0 -5.5,1.55178 -5.5,4.7 0,2.12121 0.42754,2.3 5.5,2.3 5.07246,0 5.5,-0.17879 5.5,-2.3 z m 22.4767,16.27426 c -2.00187,-2.21204 -3.31413,-14.3327 -3.4205,-31.59342 L 336,233.26168 l 3.6562,-0.59332 c 2.01092,-0.32632 3.98841,-0.38801 4.39443,-0.13707 0.40602,0.25093 1.03153,7.54655 1.39002,16.21248 0.80936,19.56493 0.94457,20.25623 3.96182,20.25623 1.71463,0 2.493,0.67286 2.83244,2.44851 0.65445,3.42355 -0.90183,4.55149 -6.27992,4.55149 -3.3947,0 -5.13848,-0.54528 -6.47829,-2.02574 z m 61.2733,-1.66359 c -1.18481,-0.30962 -1.75,-1.44363 -1.75,-3.51122 v -3.05391 l 5.25,0.50585 c 6.2807,0.60516 9.75,-0.50256 9.75,-3.1131 0,-1.50646 -0.98058,-2.05825 -4.63032,-2.60556 C 401.01966,259.28057 398,256.58603 398,250.38721 398,243.99818 402.73588,241 412.8279,241 c 7.60304,0 9.47683,1.08862 8.1045,4.70852 -0.74748,1.97171 -1.35169,2.15043 -5.63483,1.66683 -3.50784,-0.39607 -5.33523,-0.11609 -6.79757,1.04148 -1.97684,1.56484 -1.97753,1.60054 -0.0589,3.08317 1.06762,0.825 3.22747,1.5 4.79966,1.5 4.05787,0 8.62876,2.63208 9.31431,5.36351 0.32124,1.27993 0.44026,4.06976 0.26449,6.19964 -0.47653,5.77415 -4.92948,8.47526 -13.71747,8.32085 -3.63117,-0.0638 -7.38962,-0.3218 -8.35212,-0.57333 z M 433.54525,260.75 c -0.35597,-5.6375 -0.73677,-15.17546 -0.84623,-21.19546 L 432.5,228.60908 l 3.80445,-0.91676 c 2.09245,-0.50421 4.03998,-0.68122 4.32786,-0.39335 0.28787,0.28788 0.78024,5.73837 1.09415,12.11222 0.31391,6.37385 0.86529,11.58881 1.22529,11.58881 0.35999,0 2.55862,-2.7 4.88585,-6 4.09442,-5.80589 4.37578,-6 8.69686,-6 2.45605,0 4.46554,0.36674 4.46554,0.81498 0,0.44824 -2.19664,3.92157 -4.88143,7.71852 l -4.88143,6.90354 5.88143,6.61766 c 3.23479,3.63972 5.88143,7.14138 5.88143,7.78148 0,0.71786 -1.82015,1.17445 -4.75,1.19156 -4.52835,0.0264 -4.99385,-0.24188 -9.97574,-5.75 L 443.04853,258.5 443.02426,264.75 443,271 h -4.40377 -4.40377 z m 40.23636,5.99503 C 470.1829,263.77297 469,260.22057 469,252.38524 c 0,-7.92864 1.9225,-12.03709 6.5343,-13.96402 4.1016,-1.71376 13.40646,-1.86097 16.90389,-0.26743 3.68205,1.67766 6.56181,8.34582 6.56181,15.19405 0,11.65944 -4.00987,15.65573 -15.70034,15.64719 -5.56858,-0.004 -7.29183,-0.41143 -9.51805,-2.25 z m 13.77726,-5.1694 c 1.62909,-1.19539 1.907,-2.49783 1.72882,-8.10212 C 489.04041,245.69607 487.9886,244 483.41274,244 c -4.58153,0 -5.84115,2.60649 -5.03446,10.41769 0.82765,8.01422 4.31168,10.73066 9.18059,7.15794 z m 63.88504,1.05693 c -1.25862,-5.01476 -0.34526,-6.10844 5.37561,-6.43691 l 5.30079,-0.30434 -0.31016,4.30434 L 561.5,264.5 l -4.71753,0.30347 c -4.29892,0.27653 -4.77263,0.0839 -5.33856,-2.17091 z M 575.59733,260.75 c -0.27131,-1.7875 -0.71681,-8.09344 -0.99,-14.01319 -0.47364,-10.26347 -0.3948,-10.82761 1.69798,-12.15057 C 578.89999,232.946 587.68889,231 592.50217,231 c 7.7238,0 9.98284,2.89548 10.8371,13.89024 0.27308,3.51462 1.04882,6.73158 1.72386,7.14878 1.58044,0.97676 0.61036,8.90802 -1.2373,10.11609 -0.72921,0.47678 -2.8956,0.74943 -4.8142,0.60588 -3.22347,-0.24117 -3.54183,-0.56475 -4.19237,-4.26099 -0.3872,-2.2 -0.72993,-7.0007 -0.76163,-10.66821 -0.0754,-8.72702 -0.57379,-9.83519 -4.41462,-9.81648 -5.80116,0.0283 -6.02043,0.58116 -5.26194,13.26809 0.75368,12.60632 0.7067,12.7166 -5.41754,12.7166 -2.47337,0 -2.94151,-0.45198 -3.3662,-3.25 z m 45.49633,0.003 c -5.53851,-2.03702 -7.53284,-5.7044 -7.92335,-14.57033 -0.2974,-6.7518 -0.0514,-8.10649 2.03028,-11.18249 5.70059,-8.42333 21.64619,-7.81116 26.04786,1 2.33695,4.67807 2.38628,16.11691 0.0863,20.0105 -0.9159,1.55049 -2.8284,3.3504 -4.25,3.9998 -3.88249,1.77355 -12.14467,2.15719 -15.99107,0.74252 z M 632.55,253.30714 c 1.35878,-1.35878 1.59279,-2.93945 1.1858,-8.00973 C 633.15084,238.01 631.88933,236 627.90061,236 c -4.45014,0 -6.22185,3.5377 -5.35607,10.69481 0.38623,3.19286 1.15182,6.36769 1.7013,7.05519 1.43775,1.79889 6.32294,1.53836 8.30416,-0.44286 z M 103,256.21144 c 0,-0.43371 0.94714,-2.57121 2.10476,-4.75 l 2.10475,-3.96144 -0.60475,3.375 c -0.33262,1.85625 -0.60476,3.99375 -0.60476,4.75 0,0.75625 -0.675,1.375 -1.5,1.375 -0.825,0 -1.5,-0.35485 -1.5,-0.78856 z m 24.97019,-17.15575 c 0.57231,-1.06937 1.48815,-2.22092 2.03519,-2.55901 1.40866,-0.87061 1.23896,1.85898 -0.20538,3.30332 -1.86698,1.86698 -2.98413,1.41256 -1.82981,-0.74431 z M 84.354091,238.51964 C 84.709341,237.59387 85,236.64823 85,236.41821 85,236.1882 85.707996,236 86.573324,236 c 2.224182,0 1.358522,3.38944 -0.980716,3.83994 -1.418227,0.27313 -1.72463,-0.0535 -1.238517,-1.3203 z M 447,236.20423 C 447,234.36727 448.18638,232 449.10699,232 c 1.43081,0 1.02998,2.64144 -0.60699,4 -0.90823,0.75377 -1.5,0.83434 -1.5,0.20423 z m -335.01494,-2.15807 c 1.36678,-1.05016 2.66841,-1.72603 2.8925,-1.50193 0.78282,0.78281 -2.1363,3.45558 -3.75,3.43353 -1.21326,-0.0166 -0.99498,-0.50827 0.8575,-1.9316 z m 489.76563,-6.57003 c -0.26536,-1.38812 -0.0928,-2.76468 0.38342,-3.05901 0.47624,-0.29434 0.86589,0.8414 0.86589,2.52386 0,3.71243 -0.59335,3.9666 -1.24931,0.53515 z m -185.70294,0.5712 c -0.79874,-0.50345 -1.78015,-0.71272 -2.18091,-0.46504 -1.24675,0.77054 -2.08378,-1.58179 -1.45471,-4.08821 0.57177,-2.27812 0.7536,-2.32785 3.81111,-1.04226 3.76566,1.58334 4.2591,2.51961 2.54024,4.81996 -0.87051,1.16499 -1.71516,1.40621 -2.71573,0.77555 z M 629,223.36803 C 629,221.72991 632.73887,215 633.64895,215 c 0.2672,0 0.15977,1.0125 -0.23874,2.25 -0.39851,1.2375 -0.71517,2.925 -0.7037,3.75 0.0244,1.75176 -1.56566,4 -2.82895,4 C 629.3949,225 629,224.26562 629,223.36803 Z m -136,-6.17771 c 0,-0.53699 0.7126,-1.24979 1.58356,-1.58401 0.97391,-0.37373 1.43108,-0.15024 1.1875,0.58051 -0.49828,1.49484 -2.77106,2.31789 -2.77106,1.0035 z m 88.69317,-1.83048 C 580.88019,214.54686 582.78548,211 584.03518,211 c 0.53065,0 0.96482,0.6199 0.96482,1.37756 0,1.66192 -2.43298,3.85612 -3.30683,2.98228 z m 27.87229,82.76516 c 0.33505,-1.99375 0.8075,-4.35672 1.0499,-5.25104 0.27615,-1.01885 -0.31657,-1.82407 -1.58732,-2.15638 -1.41018,-0.36877 -2.02804,-0.0453 -2.02804,1.06159 0,0.87556 -0.88413,2.53304 -1.96472,3.68328 -2.59992,2.76748 -1.74514,6.28755 1.5268,6.28755 1.97325,0 2.5013,-0.63735 3.00338,-3.625 z M 516.76793,298 c 0.69188,-1.10788 0.81487,-2 0.27573,-2 -0.53531,0 -1.45496,0.9 -2.04366,2 -0.5887,1.1 -0.71278,2 -0.27573,2 0.43705,0 1.3567,-0.9 2.04366,-2 z M 698.98469,253.19098 C 698.97149,251.73371 698.8354,251.70731 698,253 c -1.2656,1.95837 -1.2656,3.28218 0,2.5 0.55,-0.33992 0.99311,-1.37898 0.98469,-2.30902 z M 88.617475,214.00509 C 119.90286,212.35789 158.325,210.33161 174,209.50226 c 15.675,-0.82936 37.275,-1.96716 48,-2.52845 10.725,-0.56129 27.6,-1.46639 37.5,-2.01134 9.9,-0.54494 52.875,-2.77491 95.5,-4.95549 42.625,-2.18058 89.875,-4.65494 105,-5.49857 44.32402,-2.47228 162.27588,-8.54037 165,-8.4885 3.46593,0.066 58.43444,-3.21673 58.78096,-3.5104 0.15453,-0.13096 -1.45908,-33.26167 -3.5858,-73.62381 -4.12507,-78.28775 -3.9188,-76.503446 -9.44002,-81.659582 -4.94083,-4.614124 -0.0348,-4.628894 -89.75514,0.270204 -15.675,0.85592 -80.025,4.233352 -143,7.505406 -62.975,3.272054 -131.6,6.862828 -152.5,7.979499 -146.88662,7.84804 -137.88617,7.452626 -137,6.018773 0.33992,-0.55 -0.046,-1 -0.85765,-1 -0.81163,0 -1.64969,0.522029 -1.86237,1.160065 -0.27172,0.815151 -17.02096,2.009658 -56.333335,4.017531 -30.770655,1.571606 -57.583606,3.302499 -59.584335,3.846428 -4.694876,1.276373 -9.404758,6.131796 -10.629865,10.958339 -0.585216,2.30557 -0.658334,9.267241 -0.1855,17.661635 0.42926,7.620801 1.294536,23.981002 1.922836,36.356002 0.628301,12.375 1.565041,29.7 2.081645,38.5 0.516604,8.8 0.941371,17.9125 0.943927,20.25 0.0034,3.10905 0.407337,4.25 1.504647,4.25 1.775677,0 2.029888,2.6567 0.309097,3.2303 -1.255819,0.41861 -1.300445,5.42066 -0.183069,20.5197 0.605694,8.1847 0.632286,8.25 3.359724,8.25 1.512059,0 28.346335,-1.34771 59.631723,-2.99491 z M 133,204 c 0,-0.55 0.45,-1 1,-1 0.55,0 1,0.45 1,1 0,0.55 -0.45,1 -1,1 -0.55,0 -1,-0.45 -1,-1 z m 96.01531,-3.67857 c -0.0154,-3.20812 2.13313,-6.34709 4.30612,-6.29102 0.64821,0.0167 0.39107,0.48908 -0.57143,1.04969 -0.9625,0.5606 -1.75689,2.00942 -1.76531,3.21959 -0.008,1.21017 -0.45153,2.87531 -0.98469,3.70031 -0.73805,1.14205 -0.97303,0.74148 -0.98469,-1.67857 z m -17.03062,-9.53625 c -0.008,-5.10685 -0.34592,-8.76585 -0.75,-8.13112 -0.40408,0.63473 -0.8103,-1.61527 -0.90272,-5 -0.19436,-7.11852 -3.69394,-18.43301 -8.94441,-28.91809 -6.21362,-12.40849 -15.57496,-28.82829 -18.97594,-33.28382 -6.43292,-8.42757 -12.01236,-25.365436 -11.06571,-33.592824 0.49861,-4.333432 0.39518,-4.604379 -1.56234,-4.092476 -1.50228,0.392855 -1.87834,0.195503 -1.32708,-0.696445 0.42307,-0.684552 1.61476,-1.02353 2.64818,-0.753283 1.96396,0.513585 5.25727,-3.040062 9.80471,-10.579772 2.75686,-4.570897 4.40624,-5.504708 13.9239,-7.88313 9.49367,-2.372425 10.19203,-2.348012 19.16331,0.669922 13.17225,4.431135 16.86714,7.018082 22.81801,15.975858 2.92303,4.4 5.68197,8.635853 6.13097,9.413006 0.68143,1.179432 1.49145,1.06114 4.90022,-0.715607 6.97052,-3.63324 25.4033,-9.358939 30.68733,-9.532285 4.15212,-0.136212 6.04747,0.447532 10.828,3.334886 10.78133,6.511728 11.92974,7.872952 12.4256,14.728198 0.51194,7.077468 -1.13754,12.907382 -6.93763,24.520412 -3.27869,6.56464 -5.6638,9.46663 -15.60955,18.99228 -13.55866,12.98595 -18.16965,17.58269 -31.23764,31.14112 -5.22396,5.42002 -13.53665,13.51384 -18.47264,17.98628 -4.936,4.47244 -10.0479,9.37935 -11.35976,10.90425 -1.31187,1.5249 -3.23669,3.22823 -4.27736,3.78519 -1.79258,0.95936 -1.89295,0.52409 -1.90745,-8.27255 z M 207,195 c 0,-0.55 0.45,-1 1,-1 0.55,0 1,0.45 1,1 0,0.55 -0.45,1 -1,1 -0.55,0 -1,-0.45 -1,-1 z M 83.836306,192.10471 C 80.499673,190.89193 75,184.96137 75,182.57609 75,179.52903 85.177074,170 88.431364,170 c 1.248604,0 3.735149,-0.51069 5.525656,-1.13486 3.041085,-1.06013 3.217886,-1.37293 2.684796,-4.75 C 94.804973,152.47893 92.96309,134.93362 92.483072,124.5 92.179427,117.9 91.552717,108 91.090383,102.5 90.62805,97 90.445952,92.161178 90.685721,91.747063 90.92549,91.332947 90.811503,88.925817 90.432416,86.397884 l -0.689249,-4.596241 -5.492689,0.686266 c -3.020979,0.377446 -7.294769,1.322077 -9.49731,2.099178 -8.827226,3.114427 -15.88066,0.583375 -13.801672,-4.952587 0.634102,-1.688498 1.506476,-2.077283 4.175049,-1.86067 8.551055,0.694106 20.752777,0.09983 26.290456,-1.280452 4.539869,-1.131577 6.969201,-1.259632 9.576399,-0.504792 C 102.91477,76.544864 108.20227,77 112.7434,77 117.28453,77 121,77.38538 121,77.856401 c 0,0.47102 -3.22413,1.156051 -7.16473,1.522291 -11.15937,1.037154 -11.53374,1.216625 -12.42298,5.955366 -1.22856,6.546978 -0.91837,75.709052 0.35333,78.781422 0.891,2.1526 1.93665,2.72558 5.90848,3.23763 2.65425,0.34218 7.3009,1.10059 10.3259,1.68534 3.025,0.58476 7.1875,1.31259 9.25,1.61741 7.28332,1.0764 4.08997,3.1025 -6.91962,4.39033 -4.32273,0.50565 -9.21468,1.87497 -12.31989,3.44849 -4.75131,2.40768 -5.12621,2.85754 -4.83983,5.80758 0.29709,3.06036 0.16794,3.18639 -3.00596,2.93365 -2.102391,-0.16742 -4.388267,0.49916 -6.244565,1.82096 -3.59909,2.56278 -7.868269,3.85314 -10.083829,3.04784 z M 146.8,187.8 c 0.93333,-0.93333 1.46667,-0.93333 2.4,0 0.93333,0.93333 0.66667,1.2 -1.2,1.2 -1.86667,0 -2.13333,-0.26667 -1.2,-1.2 z M 149,181 c 0,-0.55 0.45,-1 1,-1 0.55,0 1,0.45 1,1 0,0.55 -0.45,1 -1,1 -0.55,0 -1,-0.45 -1,-1 z m 342,-7.5 c 0,-0.91667 0.48375,-1.50542 1.075,-1.30833 0.59125,0.19708 1.075,0.78583 1.075,1.30833 0,0.5225 -0.48375,1.11125 -1.075,1.30833 C 491.48375,175.00542 491,174.41667 491,173.5 Z m 166.53964,0.15264 c -1.3314,-0.97354 -1.50986,-1.55301 -0.64324,-2.08861 1.68659,-1.04237 4.1036,0.0794 4.1036,1.90459 0,1.88774 -1.05375,1.94378 -3.46036,0.18402 z M 356.25,168.75325 c -3.34129,-1.07186 -4.05098,-2.14019 -2.18699,-3.29219 0.58466,-0.36134 1.9264,0.12437 2.98166,1.07936 1.54513,1.39833 3.15082,1.63744 8.24819,1.22827 12.76624,-1.02475 18.57096,-5.77765 20.83705,-17.06135 1.08156,-5.3855 1.01542,-5.70769 -2.65499,-12.93402 -3.19169,-6.28382 -4.62518,-7.96843 -9.42528,-11.07643 -3.1136,-2.01601 -7.21101,-4.2049 -9.10536,-4.8642 -1.89436,-0.6593 -5.44488,-2.46637 -7.89006,-4.01571 -2.44518,-1.54934 -5.14518,-2.83017 -6,-2.84629 -1.74439,-0.0329 -6.82678,-4.38018 -9.37629,-8.02012 -2.44425,-3.48965 -2.11359,-10.157329 0.78764,-15.882633 4.07984,-8.051169 11.66294,-13.004299 20.03443,-13.086096 1.65,-0.01612 5.7,-1.178797 9,-2.583724 9.54013,-4.061569 9.06913,-4.103193 13.97444,1.234969 4.64044,5.049909 6.15382,8.812092 5.00314,12.437548 -0.57926,1.825089 -1.16842,2.022346 -4.29075,1.436592 -1.99062,-0.373441 -4.9845,-1.652839 -6.65307,-2.843105 -2.51935,-1.797167 -4.19103,-2.118689 -9.8588,-1.896186 -8.07341,0.316942 -11.85171,1.768568 -16.92496,6.502567 -3.1774,2.964924 -3.75,4.137634 -3.75,7.68011 0,2.299478 0.46161,5.043398 1.0258,6.097598 1.01432,1.89528 17.12853,11.91937 22.3558,13.90678 6.82073,2.59323 11.88622,8.51066 16.30309,19.04501 2.76169,6.58671 2.81064,7.75285 0.6175,14.7103 -2.3387,7.41921 -8.95267,13.62009 -16.18088,15.17026 -6.25054,1.3405 -12.44135,1.29379 -16.87131,-0.12731 z M 420.26754,167.75 c -2.35503,-3.012 -3.53808,-9.00515 -3.79997,-19.25 -0.19339,-7.56537 -0.9754,-13.49791 -2.50453,-19 -2.72102,-9.79074 -2.60907,-9.09384 -4.01606,-25 -0.63246,-7.15 -1.77927,-15.219176 -2.54846,-17.931501 C 406.62934,83.856173 406,80.604047 406,79.341552 c 0,-4.91158 8.94082,-7.39068 15.71548,-4.357572 5.54066,2.480627 6.59471,5.788326 4.61303,14.47605 -2.28716,10.026965 -0.66886,11.86786 5.96892,6.78997 18.79689,-14.379574 29.01928,-22.029455 31.38409,-23.486145 1.55016,-0.95488 5.29348,-3.541639 8.31848,-5.748352 6.74719,-4.922019 11.50022,-5.654305 6,-0.924403 -1.925,1.6554 -5.32594,3.823518 -7.55765,4.818041 -4.25048,1.894157 -9.94858,6.86579 -27.24802,23.774083 l -10.41879,10.183226 2.41056,2.31677 c 5.62921,5.41022 9.76253,8.73886 12.80529,10.31233 1.78507,0.92309 8.95708,7.37672 15.9378,14.3414 6.98073,6.96468 14.01491,13.31864 15.63152,14.11992 3.63802,1.8032 6.43929,4.07337 6.43929,5.21844 0,0.84974 -3.99765,-1.12709 -11.07661,-5.47736 C 470.14406,142.76089 458.1168,133.26948 455,129.97525 451.57801,126.35846 431.55508,116 427.9858,116 c -2.49799,0 -2.96318,0.44586 -3.39092,3.25 -1.24295,8.14851 -2.0619,25.36276 -1.76024,37 0.31793,12.26487 -0.18999,14.54024 -2.5671,11.5 z m 205.16334,-11.5 c -3.05613,-6.4625 -5.80333,-12.95633 -6.10489,-14.43074 -0.30156,-1.47441 -1.41593,-3.61205 -2.47638,-4.75031 l -1.92809,-2.06956 -3.95756,2.019 c -10.80499,5.51229 -26.88598,2.13991 -32.81369,-6.88144 -2.35846,-3.58931 -2.74469,-7.39433 -3.47042,-34.189242 -0.21314,-7.869366 16.73782,-31.931424 22.51378,-31.958532 3.13466,-0.01471 11.67014,-2.669897 14.46081,-4.498414 C 612.9058,58.670843 615.70765,58 617.88079,58 c 3.39706,0 4.38364,0.546065 7.03518,3.893904 1.69622,2.141648 3.08403,4.358987 3.08403,4.92742 0,0.568434 -1.2375,2.013004 -2.75,3.210156 -2.42046,1.915807 -3.51695,2.099073 -9.15019,1.529343 -5.67594,-0.574049 -6.99399,-0.34686 -11.64764,2.007672 -6.82764,3.454471 -13.37507,10.265401 -17.95966,18.682463 -3.69862,6.790456 -4.59486,11.974992 -4.83869,27.990572 -0.11407,7.49244 7.04675,12.86909 18.09411,13.58583 9.82494,0.63744 13.68744,-2.94718 13.37804,-12.41555 -0.0929,-2.84278 0.35194,-6.4609 0.98852,-8.04025 0.63659,-1.57936 1.08424,-4.17286 0.99478,-5.76333 -0.19573,-3.48002 2.37155,-6.60823 5.42327,-6.60823 2.99288,0 3.98931,1.4106 7.12866,10.0917 2.31131,6.39137 2.71927,9.24317 2.97198,20.7753 0.16593,7.57177 0.91183,15.5924 1.72045,18.5 1.81823,6.53792 2.77074,14.14532 2.01703,16.10947 -1.36961,3.56913 -3.64878,0.96192 -8.93978,-10.22647 z m -79.8645,9.85222 c -1.0635,-0.41647 -1.5135,-1.00626 -1,-1.31065 1.43406,-0.85008 7.48633,0.31413 6.8644,1.32043 -0.64935,1.05068 -3.16713,1.04648 -5.8644,-0.01 z M 146,164 c 0,-0.55 0.64844,-1 1.44098,-1 0.79254,0 1.7191,0.45 2.05902,1 0.33992,0.55 -0.30852,1 -1.44098,1 C 146.92656,165 146,164.55 146,164 Z m -77,-8 c 0,-0.55 0.675,-1 1.5,-1 0.825,0 1.5,0.45 1.5,1 0,0.55 -0.675,1 -1.5,1 -0.825,0 -1.5,-0.45 -1.5,-1 z m 455,-2.04569 c -12.02433,-2.0825 -27.74331,-13.44054 -29.83775,-21.55981 -1.25744,-4.87459 -3.24574,-16.23403 -3.3072,-18.8945 -0.0891,-3.85632 1.41976,-11.01446 2.63484,-12.5 0.6748,-0.825 1.69191,-2.88992 2.26026,-4.588711 1.1439,-3.419115 7.2772,-12.252039 8.57502,-12.349391 2.22893,-0.167197 14.97262,-8.671369 16.76385,-11.18692 1.12407,-1.578611 3.09042,-3.132895 4.36967,-3.453966 5.24251,-1.315785 12.43871,5.867311 11.12436,11.104095 -0.70472,2.807853 -5.74201,6.058316 -10.85897,7.007083 -3.1538,0.584765 -4.20459,1.463584 -6.37775,5.333963 -1.43101,2.548616 -3.45478,5.867227 -4.49726,7.374697 -1.04247,1.50746 -2.12743,4.20746 -2.41102,6 -0.28358,1.79253 -0.99997,5.53802 -1.59196,8.32331 -0.95047,4.47189 -0.82898,5.54905 1.03878,9.21016 1.16332,2.2803 2.11513,4.78383 2.11513,5.5634 0,0.77956 0.70789,2.00489 1.57309,2.72294 0.8652,0.71805 2.42995,2.98514 3.47724,5.03799 2.07042,4.05836 4.9468,5.23532 12.5582,5.13857 5.58303,-0.071 12.39147,-3.60751 12.39147,-6.43655 0,-1.18727 0.42375,-3.54062 0.94168,-5.22967 1.94278,-6.33583 2.79198,-14.95153 1.82511,-18.5171 -0.53003,-1.95464 -2.93851,-5.54341 -5.35217,-7.97504 -2.41367,-2.43163 -4.65668,-5.266162 -4.98448,-6.298964 C 535.63339,95.269569 538.54596,91 541.05517,91 c 3.10301,0 8.22182,2.488379 10.53459,5.121121 3.89485,4.433689 9.57027,16.220019 10.58541,21.983039 0.97751,5.54946 0.87476,6.04421 -3.17146,15.27023 -3.04467,6.94234 -5.33453,10.5976 -8.42148,13.44305 -6.31039,5.81672 -17.24845,8.7534 -26.58223,7.13687 z M 173.66667,125.33333 C 173.3,124.96667 173,124.20167 173,123.63333 c 0,-0.6266 0.46577,-0.56756 1.18333,0.15 0.65084,0.65084 0.95084,1.41584 0.66667,1.7 -0.28417,0.28417 -0.81667,0.21667 -1.18333,-0.15 z M 299,114.11803 c 0,-0.55 0.45,-1.27811 1,-1.61803 0.55,-0.33992 1,-0.16803 1,0.38197 0,0.55 -0.45,1.27811 -1,1.61803 -0.55,0.33992 -1,0.16803 -1,-0.38197 z M 394,98.569551 C 394,97.548528 394.90283,97 396.58333,97 c 3.13272,0 2.78984,2.348466 -0.41166,2.819551 C 394.72946,100.03176 394,99.61189 394,98.569551 Z M 349,79 c 0,-0.55 0.70156,-1 1.55902,-1 0.85746,0 1.2809,0.45 0.94098,1 -0.33992,0.55 -1.04148,1 -1.55902,1 C 349.42344,80 349,79.55 349,79 Z M 35,77.975249 C 35,77.13133 38.986578,75 40.5651,75 c 1.424065,0 0.042,1.857987 -2.112153,2.839485 C 35.336008,79.259657 35,79.272869 35,77.975249 Z m 602,-0.806634 c 0,-0.677261 0.67242,-1.489415 1.49426,-1.804785 0.82184,-0.31537 1.24528,-0.976246 0.94098,-1.468615 C 639.13094,73.402847 640.31362,73 642.06343,73 c 2.71458,0 2.99877,0.220124 1.93657,1.5 -0.68469,0.825 -1.99979,1.5 -2.92244,1.5 -0.92266,0 -2.21756,0.54 -2.87756,1.2 -0.93333,0.933333 -1.2,0.926359 -1.2,-0.03139 z M 90.275762,74.671314 C 90.754634,73.232976 94,72.482451 94,73.810044 c 0,0.526182 -0.925697,1.198768 -2.057105,1.494638 -1.308578,0.342201 -1.915204,0.111735 -1.667133,-0.633368 z M 42,74 c 0,-0.55 0.675,-1 1.5,-1 0.825,0 1.5,0.45 1.5,1 0,0.55 -0.675,1 -1.5,1 C 42.675,75 42,74.55 42,74 Z M 89.666667,67.333333 C 88.488062,66.154729 88.949774,65.246397 91,64.710251 c 2.21937,-0.580378 2.254569,-0.537221 1.393011,1.707962 -0.644253,1.678895 -1.631269,2.010196 -2.726344,0.91512 z M 325.5,67 c 0.33992,-0.55 1.04148,-1 1.55902,-1 0.51754,0 0.94098,0.45 0.94098,1 0,0.55 -0.70156,1 -1.55902,1 -0.85746,0 -1.2809,-0.45 -0.94098,-1 z M 300,57 c 0,-0.55 0.45,-1 1,-1 0.55,0 1,0.45 1,1 0,0.55 -0.45,1 -1,1 -0.55,0 -1,-0.45 -1,-1 z M 512.44615,35.912868 c -1.14709,-1.85603 1.25222,-3.408085 3.01147,-1.948042 0.84831,0.704035 1.54238,1.674963 1.54238,2.157619 0,1.258271 -3.75343,1.085531 -4.55385,-0.209577 z M 181.55887,214.5318 c 1.06762,-0.8075 1.41543,-1.4825 0.77292,-1.5 C 180.432,212.98008 178,214.14516 178,215.10699 c 0,1.31057 1.35528,1.09152 3.55887,-0.57519 z M 313.5,215 c 0.33992,-0.55 -0.11008,-1 -1,-1 -0.88992,0 -1.33992,0.45 -1,1 0.33992,0.55 0.78992,1 1,1 0.21008,0 0.66008,-0.45 1,-1 z M 236,212 c 1.21296,-0.78387 1.06944,-0.9723 -0.75,-0.98469 C 234.0125,211.00689 233,211.45 233,212 c 0,1.25292 1.06124,1.25292 3,0 z m 235,-7.60699 C 471,204.17686 470.325,204 469.5,204 c -0.825,0 -1.5,0.43588 -1.5,0.96862 0,0.53273 0.675,0.70959 1.5,0.39301 0.825,-0.31659 1.5,-0.75246 1.5,-0.96862 z M 16,161.88197 c 0,-0.55 -0.45,-0.72189 -1,-0.38197 -0.55,0.33992 -1,1.06803 -1,1.61803 0,0.55 0.45,0.72189 1,0.38197 0.55,-0.33992 1,-1.06803 1,-1.61803 z M 26.55887,48.470602 c 1.879783,-1.481064 1.864596,-1.520569 -0.480542,-1.25 -1.33192,0.153669 -2.60692,0.841898 -2.833333,1.529398 -0.560189,1.700999 0.963368,1.572545 3.313875,-0.279398 z m 49.297893,-2.360915 c 0.824151,-0.522207 0.966771,-1.100715 0.363307,-1.473677 -0.546401,-0.337694 -1.549545,0.05606 -2.229208,0.875 -1.349379,1.625903 -0.291135,1.965442 1.865901,0.598677 z M 292.5,40 c 0.33992,-0.55 0.16803,-1 -0.38197,-1 -0.55,0 -1.27811,0.45 -1.61803,1 -0.33992,0.55 -0.16803,1 0.38197,1 0.55,0 1.27811,-0.45 1.61803,-1 z M 75.77106,36.18682 C 76.014643,35.45607 75.557474,35.232583 74.58356,35.606309 73.712602,35.940527 73,36.653333 73,37.190322 c 0,1.314392 2.272781,0.491335 2.77106,-1.003502 z M 276,31.5 c -0.70675,-0.851583 -1.51,-1.323332 -1.785,-1.048332 -0.275,0.275 0.0783,1.196749 0.785,2.048332 0.70675,0.851583 1.51,1.323332 1.785,1.048332 C 277.06,33.273332 276.7067,32.351583 276,31.5 Z m 6.75613,-4.019859 c -0.14087,-0.109334 -1.45019,-0.484764 -2.9096,-0.83429 -2.51681,-0.602771 -2.59442,-0.510362 -1.50682,1.794237 1.06069,2.247581 1.27882,2.310128 2.9096,0.834289 0.96962,-0.877497 1.64769,-1.684903 1.50682,-1.794236 z M 269,29 c 0,-0.55 -0.45,-1 -1,-1 -0.55,0 -1,0.45 -1,1 0,0.55 0.45,1 1,1 0.55,0 1,-0.45 1,-1 z m 84.09375,-2.050173 c 1.07925,-0.577596 1.69811,-1.477596 1.37524,-2 C 353.52874,23.428464 352.15342,23.844816 351,26 c -1.20787,2.256931 -0.74281,2.467907 2.09375,0.949827 z M 360,25.916667 c 0,-2.437045 -2.33677,-2.09257 -2.82332,0.416199 C 356.9853,27.31963 357.49544,28 358.42668,28 359.35431,28 360,27.145004 360,25.916667 Z M 309,25 c 0,-1.111111 -0.66667,-2 -1.5,-2 -1.68305,0 -1.75069,0.183146 -0.89301,2.418213 C 307.46441,27.652613 309,27.384246 309,25 Z m -21.5,0 c 0.33992,-0.55 0.16803,-1 -0.38197,-1 -0.55,0 -1.27811,0.45 -1.61803,1 -0.33992,0.55 -0.16803,1 0.38197,1 0.55,0 1.27811,-0.45 1.61803,-1 z m 28.4922,-0.75 c -0.004,-0.4125 -1.18415,-1.29605 -2.62191,-1.963446 -2.55616,-1.186547 -2.57472,-1.169923 -0.83721,0.75 1.80332,1.99264 3.47332,2.578471 3.45912,1.213446 z M 370,24.166667 c 0,-1.302074 -1.18877,-2.168033 -2.15579,-1.570382 C 366.80999,23.235467 367.70176,25 369.05902,25 369.57656,25 370,24.625 370,24.166667 Z m 17.00055,-2.66676 C 389.20025,21.12827 391,20.44205 391,19.974973 c 0,-0.467078 -1.51779,-0.602928 -3.37287,-0.301891 -2.03938,0.330946 -3.65601,0.08921 -4.08903,-0.611429 -0.96592,-1.5629 -3.5381,0.541109 -3.5381,2.894125 0,2.42395 1.24201,3.363154 2.19516,1.65997 0.44327,-0.792076 2.6057,-1.744205 4.80539,-2.115841 z M 450.24761,20.5 c 0.94042,-1.699752 0.88727,-1.820932 -0.35407,-0.807202 -2.12858,1.738287 -4.71087,-0.003 -3.02209,-2.037908 1.04779,-1.262506 0.91999,-1.41311 -0.8143,-0.959584 C 444.62654,17.069419 444,18.04945 444,19.913097 c 0,2.223483 0.43774,2.671922 2.57053,2.633369 1.50026,-0.02712 3.03126,-0.879193 3.67708,-2.046466 z M 675,20.333333 c 0,-2.935561 -1.20821,-2.4394 -1.68616,0.692437 C 673.14813,22.111596 673.45973,23 674.00627,23 674.55282,23 675,21.8 675,20.333333 Z m -123.07259,-8.05153 c 0.86492,-0.670008 1.12259,-1.222502 0.57259,-1.227764 -2.05177,-0.01963 -5.79004,3.667651 -5.00544,4.937163 0.58708,0.949911 1.0414,0.797048 1.82123,-0.612786 0.57146,-1.033129 1.74669,-2.426604 2.61162,-3.096613 z M 561,13.5 c 0,-0.825 -0.43588,-1.5 -0.96862,-1.5 -0.53273,0 -0.70959,0.675 -0.39301,1.5 0.31659,0.825 0.75246,1.5 0.96862,1.5 C 560.82314,15 561,14.325 561,13.5 Z m 8.12756,-1.25 c 1.26951,-1.618755 1.22245,-1.639977 -0.62756,-0.282968 -1.1,0.806868 -2.1875,1.594368 -2.41667,1.75 C 565.85417,13.872665 566.13657,14 566.71089,14 c 0.57432,0 1.66182,-0.7875 2.41667,-1.75 z m -286.1075,7.225834 c 0.69572,-0.838291 1.47088,-1.31823 1.72258,-1.066531 C 285.43613,19.1028 284.02709,21 282.81854,21 c -0.6631,0 -0.58723,-0.573782 0.20152,-1.524166 z"
         id="path819" />
      <path
         style="fill:#e1011a"
         d="m 211.99863,192.28518 c -0.003,-14.59472 -3.71078,-29.76736 -10.67408,-43.67433 -6.15416,-12.29097 -15.52515,-28.72045 -18.91293,-33.1587 -6.23176,-8.16404 -11.99267,-25.303324 -11.13343,-33.123069 0.30659,-2.790152 1.60516,-5.604044 3.92264,-8.5 1.90538,-2.380994 4.47989,-6.022273 5.72113,-8.091731 2.74058,-4.569239 4.38961,-5.503698 13.91132,-7.88313 9.49367,-2.372425 10.19203,-2.348012 19.16331,0.669922 13.17225,4.431135 16.86714,7.018082 22.81801,15.975858 2.92303,4.4 5.68197,8.635853 6.13097,9.413006 0.68143,1.179432 1.49145,1.06114 4.90022,-0.715607 6.97052,-3.63324 25.4033,-9.358939 30.68733,-9.532285 4.15212,-0.136212 6.04747,0.447532 10.828,3.334886 10.78133,6.511728 11.92974,7.872952 12.4256,14.728198 0.51194,7.077468 -1.13754,12.907382 -6.93763,24.520412 -3.27869,6.56464 -5.6638,9.46663 -15.60955,18.99228 -13.55866,12.98595 -18.16965,17.58269 -31.23764,31.14112 -5.22396,5.42002 -13.53665,13.51384 -18.47264,17.98628 -4.936,4.47244 -10.0479,9.37935 -11.35976,10.90425 -1.31187,1.5249 -3.23669,3.22823 -4.27736,3.78519 -1.78083,0.95306 -1.89222,0.55463 -1.89351,-6.77255 z"
         id="path817" />
    </g>
  </g>
</svg>
