<?xml version="1.0" encoding="UTF-8"?>
<svg width="34px" height="25px" viewBox="0 0 34 25" version="1.1" xmlns="http://www.w3.org/2000/svg" xmlns:xlink="http://www.w3.org/1999/xlink">
    <title>Group 9</title>
    <g id="Page-1" stroke="none" stroke-width="1" fill="none" fill-rule="evenodd">
        <g id="Mobil-svar" transform="translate(-140.000000, -60.000000)" fill="#FFF9BF">
            <g id="Group-10" transform="translate(74.189161, 60.000000)">
                <g id="Group-9" transform="translate(65.810839, 0.000000)">
                    <g id="Group-3">
                        <rect id="Rectangle" x="0" y="7" width="8" height="11"></rect>
                        <polygon id="Rectangle" points="7 7 17 0 17 25 7 18"></polygon>
                    </g>
                    <path d="M21.658912,8.19225117 L23.2206299,6 C25.5107219,8.16666667 26.6557679,10.3333333 26.6557679,12.5 C26.6557679,14.6666667 25.5107219,16.8333333 23.2206299,19 L21.658912,16.7941186 C23.064309,15.5065219 23.7670074,14.075149 23.7670074,12.5 C23.7670074,10.924851 23.064309,9.48893471 21.658912,8.19225117 Z" id="Path-Copy-2"></path>
                    <path d="M25.4532303,3.50698416 L27.5000838,1 C31.5517849,4.83333333 33.5776355,8.66666667 33.5776355,12.5 C33.5776355,16.3333333 31.5517849,20.1666667 27.5000838,24 L25.4532303,21.4306259 C28.7413935,18.2636774 30.3854751,15.2868021 30.3854751,12.5 C30.3854751,9.7131979 28.7413935,6.71552595 25.4532303,3.50698416 Z" id="Path-Copy-3"></path>
                </g>
            </g>
        </g>
    </g>
</svg>